<?xml version="1.0" encoding="utf-8"?>
<!-- Generator: Adobe Illustrator 19.2.0, SVG Export Plug-In . SVG Version: 6.00 Build 0)  -->
<svg version="1.1" id="Layer_1" xmlns="http://www.w3.org/2000/svg" xmlns:xlink="http://www.w3.org/1999/xlink" x="0px" y="0px" width="128px"
	 viewBox="0 0 138.8 32.3" style="enable-background:new 0 0 138.8 32.3;" xml:space="preserve">
<style type="text/css">
	.st0{fill:none;stroke:#020202;stroke-width:3;stroke-linejoin:round;stroke-miterlimit:10;}
	.st1{fill:#020202;}
</style>
<rect id="rect" x="1.5" y="1.5" class="st0" width="29.3" height="29.3"/>
<path id="mAlpha" class="st1" d="M20.7,22.8v-7.3l-3.6,6h-1.7l-3.5-5.8v7.1H8.2V8.9h3.2l4.9,8l4.7-8h3.2v13.8
	C24.2,22.7,20.7,22.8,20.7,22.8z"/>
<path id="letter" class="st1" d="M46.1,16.8v6.4H43v-1.4c-0.6,1-1.8,1.6-3.4,1.6c-2.6,0-4.2-1.5-4.2-3.4c0-2,1.4-3.4,4.9-3.4h2.6
	c0-1.4-0.8-2.2-2.6-2.2c-1.2,0-2.4,0.4-3.3,1l-1.2-2.3c1.2-0.9,3.1-1.4,4.9-1.4C44.1,11.8,46.1,13.4,46.1,16.8z M42.9,19.7v-1.2
	h-2.2c-1.5,0-2,0.6-2,1.3c0,0.8,0.7,1.4,1.8,1.4C41.5,21.2,42.5,20.7,42.9,19.7z"/>
<path id="letter_1_" class="st1" d="M48.7,8.6c0-1,0.8-1.8,2-1.8s2,0.8,2,1.8c0,1.1-0.8,1.9-2,1.9S48.7,9.6,48.7,8.6z M49.1,12h3.3
	v11.3h-3.3C49.1,23.3,49.1,12,49.1,12z"/>
<path id="letter_2_" class="st1" d="M54.3,22.2l1.1-2.4c1,0.7,2.5,1.1,3.9,1.1c1.5,0,2.1-0.4,2.1-1c0-1.8-6.8,0-6.8-4.5
	c0-2.1,1.9-3.7,5.2-3.7c1.6,0,3.3,0.4,4.3,1L63,15c-1.1-0.6-2.2-0.8-3.3-0.8c-1.5,0-2.1,0.5-2.1,1c0,1.9,6.8,0.1,6.8,4.5
	c0,2.1-2,3.6-5.3,3.6C57.3,23.4,55.4,22.9,54.3,22.2z"/>
<path id="letter_3_" class="st1" d="M65.7,17.6c0-3.4,2.6-5.8,6.2-5.8s6.2,2.4,6.2,5.8s-2.6,5.8-6.2,5.8S65.7,21,65.7,17.6z
	 M74.8,17.6c0-2-1.2-3.1-2.9-3.1S69,15.7,69,17.6c0,2,1.3,3.1,2.9,3.1S74.8,19.6,74.8,17.6z"/>
<path id="letter_4_" class="st1" d="M91.9,16.8v6.5h-3.3v-6c0-1.8-0.8-2.7-2.3-2.7c-1.6,0-2.7,1-2.7,3v5.6h-3.3V12h3.1v1.3
	c0.9-1,2.2-1.5,3.7-1.5C89.9,11.8,91.9,13.3,91.9,16.8z"/>
<path id="letter_5_" class="st1" d="M113.6,16.8v6.4h-1v-6.3c0-2.5-1.3-3.8-3.4-3.8c-2.5,0-4,1.7-4,4.3v5.8h-1v-6.3
	c0-2.5-1.3-3.8-3.4-3.8c-2.5,0-4,1.7-4,4.3v5.8h-1v-11h1v2.4c0.7-1.5,2.2-2.4,4.2-2.4s3.4,0.9,4,2.6c0.7-1.6,2.3-2.6,4.4-2.6
	C111.8,12.2,113.6,13.8,113.6,16.8z"/>
<path id="letter_6_" class="st1" d="M116.7,17.8c0-3.3,2.3-5.6,5.5-5.6s5.5,2.3,5.5,5.6s-2.3,5.6-5.5,5.6S116.7,21,116.7,17.8z
	 M126.6,17.8c0-2.8-1.9-4.6-4.4-4.6s-4.4,1.9-4.4,4.6c0,2.8,1.9,4.6,4.4,4.6S126.6,20.5,126.6,17.8z"/>
<path id="letter_7_" class="st1" d="M138.8,16.3v6.9h-1v-2c-0.7,1.3-2,2-3.9,2c-2.5,0-3.9-1.3-3.9-3.1c0-1.7,1.1-3.1,4.1-3.1h3.8
	v-0.9c0-2-1.1-3.1-3.3-3.1c-1.5,0-2.9,0.6-3.8,1.4l-0.5-0.8c1.1-1,2.7-1.6,4.4-1.6C137.3,12.2,138.8,13.6,138.8,16.3L138.8,16.3z
	 M137.8,20v-2H134c-2.3,0-3.1,0.9-3.1,2.2c0,1.4,1.1,2.3,3,2.3S137.1,21.6,137.8,20L137.8,20z"/>
</svg>
