<svg id="图层_1" data-name="图层 1" xmlns="http://www.w3.org/2000/svg" viewBox="0 0 56.58 80.26" width="28px" height="28px"><defs><style>.cls-1{fill:#4b4b4d;}.cls-2{fill:#007dc2;}.cls-2,.cls-3,.cls-7{fill-rule:evenodd;}.cls-3{fill:#008ed2;}.cls-4{fill:#008cc2;}.cls-5{fill:#ebebec;}.cls-6{fill:#fff;}.cls-7{fill:#231f20;}</style></defs><title>css3</title><polyline class="cls-1" points="0 15.77 56.58 15.77 51.53 73.62 28.45 80.26 4.74 73.62"/><polyline class="cls-1" points="28.47 21.37 28.47 74.66 47.53 69.17 51.71 21.37"/><polyline class="cls-1" points="36.99 48.96 28.47 48.96 28.47 59.87 36.04 58.45"/><polyline class="cls-1" points="10.12 28.1 11.06 35.07 28.13 35.06 11.38 42.33 12.33 48.96 28.47 48.96 28.47 28.1"/><polyline class="cls-1" points="20.23 58.13 19.6 52.76 12.65 52.76 13.59 63.82 28.45 67.93 28.47 67.93 28.47 59.87"/><polyline class="cls-1" points="44.57 41.74 29.35 41.74 45.88 34.98 45.88 28.1 28.47 28.1 28.47 48.97 36.99 48.97 36.04 58.45 28.47 59.87 28.47 67.93 42.68 63.51"/><polyline class="cls-1" points="11.49 0 11.49 10.82 20.41 10.82 20.41 7.32 15.31 7.32 15.31 3.67 20.41 3.67 20.41 0"/><polyline class="cls-1" points="23.99 0 23.99 2.93 27.09 7.32 24.23 7.32 24.23 10.82 32.82 10.82 32.82 7.49 29.96 3.82 32.82 3.82 32.82 0"/><polyline class="cls-1" points="36.26 0 36.26 2.93 39.36 7.32 36.5 7.32 36.5 10.82 45.09 10.82 45.09 7.49 42.23 3.82 45.09 3.82 45.09 0"/><polyline class="cls-2" points="0 15.77 56.58 15.77 51.53 73.62 28.45 80.26 4.74 73.62"/><polyline class="cls-3" points="28.47 21.37 28.47 74.66 47.53 69.17 51.71 21.37"/><polyline class="cls-4" points="36.99 48.97 28.47 48.97 28.47 59.87 36.04 58.45"/><polyline class="cls-5" points="10.12 28.1 11.06 35.07 28.13 35.06 11.38 42.33 12.33 48.97 28.47 48.97 28.47 28.1"/><polyline class="cls-5" points="20.23 58.13 19.6 52.76 12.65 52.76 13.59 63.82 28.45 67.93 28.47 67.93 28.47 59.87"/><polyline class="cls-6" points="44.57 41.74 29.35 41.74 45.88 34.98 45.88 28.1 28.47 28.1 28.47 48.97 36.99 48.97 36.04 58.45 28.47 59.87 28.47 67.93 42.68 63.51"/><polyline class="cls-7" points="11.49 0 11.49 10.82 20.41 10.82 20.41 7.32 15.31 7.32 15.31 3.67 20.41 3.67 20.41 0"/><polyline class="cls-7" points="23.99 0 23.99 2.93 27.09 7.32 24.23 7.32 24.23 10.82 32.82 10.82 32.82 7.49 29.96 3.82 32.82 3.82 32.82 0"/><polyline class="cls-7" points="36.26 0 36.26 2.93 39.36 7.32 36.5 7.32 36.5 10.82 45.09 10.82 45.09 7.49 42.23 3.82 45.09 3.82 45.09 0"/></svg>