<svg id="图层_1" data-name="图层 1" xmlns="http://www.w3.org/2000/svg" xmlns:xlink="http://www.w3.org/1999/xlink" viewBox="0 0 433.58 612" width="28px" height="28px"><defs><style>.cls-1{fill:none;}.cls-2{fill:#4b4b4d;}.cls-3{fill:#007dc2;}.cls-3,.cls-4,.cls-8{fill-rule:evenodd;}.cls-4{fill:#008ed2;}.cls-5{fill:#008cc2;}.cls-6{fill:#ebebec;}.cls-7{fill:#fff;}.cls-8{fill:#231f20;}.cls-9{clip-path:url(#clip-path);}.cls-10{fill:#e34e26;}.cls-11{fill:#f0662a;}.cls-12{fill:#ebebeb;}</style><clipPath id="clip-path" transform="translate(242 292)"><rect class="cls-1" x="-242" y="-292" width="433.58" height="612"/></clipPath></defs><title>html5</title><polyline class="cls-2" points="245.82 310.75 302.41 310.75 297.35 368.6 274.27 375.23 250.57 368.6"/><polyline class="cls-2" points="274.29 316.35 274.29 369.63 293.35 364.15 297.53 316.35"/><polyline class="cls-2" points="282.81 343.94 274.29 343.94 274.29 354.85 281.86 353.42"/><polyline class="cls-2" points="255.94 323.08 256.89 330.04 273.96 330.03 257.2 337.3 258.15 343.94 274.29 343.94 274.29 323.08"/><polyline class="cls-2" points="266.06 353.11 265.43 347.74 258.47 347.74 259.42 358.8 274.27 362.91 274.29 362.9 274.29 354.85"/><polyline class="cls-2" points="290.4 336.71 275.17 336.71 291.7 329.95 291.7 323.08 274.29 323.08 274.29 343.94 282.81 343.94 281.86 353.42 274.29 354.85 274.29 362.9 288.5 358.48"/><polyline class="cls-2" points="257.32 294.98 257.32 305.8 266.23 305.8 266.23 302.3 261.14 302.3 261.14 298.64 266.23 298.64 266.23 294.98"/><polyline class="cls-2" points="269.81 294.98 269.81 297.9 272.92 302.3 270.05 302.3 270.05 305.8 278.64 305.8 278.64 302.46 275.78 298.8 278.64 298.8 278.64 294.98"/><polyline class="cls-2" points="282.08 294.98 282.08 297.9 285.19 302.3 282.32 302.3 282.32 305.8 290.92 305.8 290.92 302.46 288.05 298.8 290.92 298.8 290.92 294.98"/><polyline class="cls-3" points="245.82 310.75 302.41 310.75 297.35 368.6 274.27 375.23 250.57 368.6"/><polyline class="cls-4" points="274.29 316.35 274.29 369.63 293.35 364.15 297.53 316.35"/><polyline class="cls-5" points="282.81 343.94 274.29 343.94 274.29 354.85 281.86 353.42"/><polyline class="cls-6" points="255.94 323.08 256.89 330.04 273.96 330.03 257.2 337.3 258.15 343.94 274.29 343.94 274.29 323.08"/><polyline class="cls-6" points="266.06 353.11 265.43 347.74 258.47 347.74 259.42 358.8 274.27 362.91 274.29 362.9 274.29 354.85"/><polyline class="cls-7" points="290.4 336.71 275.17 336.71 291.7 329.95 291.7 323.08 274.29 323.08 274.29 343.94 282.81 343.94 281.86 353.42 274.29 354.85 274.29 362.9 288.5 358.48"/><polyline class="cls-8" points="257.32 294.98 257.32 305.8 266.23 305.8 266.23 302.3 261.14 302.3 261.14 298.64 266.23 298.64 266.23 294.98"/><polyline class="cls-8" points="269.81 294.98 269.81 297.9 272.92 302.3 270.05 302.3 270.05 305.8 278.64 305.8 278.64 302.46 275.78 298.8 278.64 298.8 278.64 294.98"/><polyline class="cls-8" points="282.08 294.98 282.08 297.9 285.19 302.3 282.32 302.3 282.32 305.8 290.92 305.8 290.92 302.46 288.05 298.8 290.92 298.8 290.92 294.98"/><g class="cls-9"><polygon class="cls-10" points="39.46 562.85 0 120.27 433.58 120.27 394.08 562.77 216.52 612 39.46 562.85 39.46 562.85"/></g><polygon class="cls-11" points="216.79 574.38 360.26 534.6 394.02 156.46 216.79 156.46 216.79 574.38 216.79 574.38"/><polygon class="cls-12" points="216.79 320.6 144.96 320.6 140 265.02 216.79 265.02 216.79 210.74 216.6 210.74 80.68 210.74 81.98 225.3 95.32 374.88 216.79 374.88 216.79 320.6 216.79 320.6"/><polygon class="cls-12" points="216.79 461.57 216.55 461.64 156.1 445.31 152.24 402.02 122.86 402.02 97.75 402.02 105.35 487.25 216.54 518.12 216.79 518.05 216.79 461.57 216.79 461.57"/><polygon points="40.34 0 67.92 0 67.92 27.25 93.16 27.25 93.16 0 120.74 0 120.74 82.53 93.16 82.53 93.16 54.89 67.93 54.89 67.93 82.53 40.34 82.53 40.34 0 40.34 0 40.34 0"/><polygon points="157.02 27.37 132.73 27.37 132.73 0 208.9 0 208.9 27.37 184.6 27.37 184.6 82.53 157.02 82.53 157.02 27.37 157.02 27.37 157.02 27.37"/><polygon points="220.99 0 249.75 0 267.44 29 285.12 0 313.89 0 313.89 82.53 286.42 82.53 286.42 41.62 267.44 70.97 266.97 70.97 247.98 41.62 247.98 82.53 220.99 82.53 220.99 0 220.99 0"/><polygon points="327.62 0 355.21 0 355.21 55.25 394 55.25 394 82.53 327.62 82.53 327.62 0 327.62 0"/><polygon class="cls-7" points="216.6 320.6 216.6 374.88 283.44 374.88 277.14 445.28 216.6 461.62 216.6 518.09 327.88 487.25 328.69 478.08 341.45 335.18 342.77 320.6 328.15 320.6 216.6 320.6 216.6 320.6"/><polygon class="cls-7" points="216.6 210.74 216.6 244.45 216.6 264.89 216.6 265.02 347.54 265.02 347.54 265.02 347.71 265.02 348.8 252.82 351.27 225.3 352.57 210.74 216.6 210.74 216.6 210.74"/></svg>