<svg id="Layer_1" data-name="Layer 1" xmlns="http://www.w3.org/2000/svg" xmlns:xlink="http://www.w3.org/1999/xlink" viewBox="0 0 589.83 284.59" width="38px"><defs><style>.cls-1{fill:none;}.cls-2{fill:#333;}.cls-3{fill:#689f63;}.cls-4{clip-path:url(#clip-path);}.cls-5{fill:url(#linear-gradient);}.cls-6{clip-path:url(#clip-path-2);}.cls-7{fill:url(#linear-gradient-2);}.cls-8{clip-path:url(#clip-path-3);}.cls-9{fill:url(#linear-gradient-3);}</style><clipPath id="clip-path"><path class="cls-1" d="M214.3,83.45l-56.17,32.42a6.78,6.78,0,0,0-3.39,5.87v64.89a6.78,6.78,0,0,0,3.39,5.87L214.3,225a6.8,6.8,0,0,0,6.79,0l56.17-32.45a6.79,6.79,0,0,0,3.39-5.87V121.75a6.78,6.78,0,0,0-3.4-5.87L221.08,83.45a6.83,6.83,0,0,0-6.8,0"/></clipPath><linearGradient id="linear-gradient" x1="-0.49" y1="602.82" x2="1.11" y2="602.82" gradientTransform="matrix(-50.75, 103.54, 103.54, 50.75, -62180.24, -30473.16)" gradientUnits="userSpaceOnUse"><stop offset="0.3" stop-color="#3e863d"/><stop offset="0.5" stop-color="#55934f"/><stop offset="0.8" stop-color="#5aad45"/></linearGradient><clipPath id="clip-path-2"><path class="cls-1" d="M156.12,190.76a6.8,6.8,0,0,0,2,1.75l48.19,27.83,8,4.61a6.81,6.81,0,0,0,3.91.89,6.94,6.94,0,0,0,1.33-.24l59.25-108.48a6.72,6.72,0,0,0-1.58-1.25L240.47,94.63,221,83.44a7.09,7.09,0,0,0-1.76-.71Z"/></clipPath><linearGradient id="linear-gradient-2" x1="-3.25" y1="600.8" x2="-2.22" y2="600.8" gradientTransform="matrix(142.41, -105.22, -105.22, -142.41, 63824.2, 85424.85)" gradientUnits="userSpaceOnUse"><stop offset="0.57" stop-color="#3e863d"/><stop offset="0.72" stop-color="#619857"/><stop offset="1" stop-color="#76ac64"/></linearGradient><clipPath id="clip-path-3"><path class="cls-1" d="M217,82.58a6.85,6.85,0,0,0-2.71.87l-56,32.33,60.4,110a6.74,6.74,0,0,0,2.41-.83l56.17-32.45a6.81,6.81,0,0,0,3.28-4.63L219,82.69a7.05,7.05,0,0,0-1.37-.14l-0.56,0"/></clipPath><linearGradient id="linear-gradient-3" x1="-1.94" y1="600.04" x2="-1" y2="600.04" gradientTransform="matrix(129.89, 0, 0, -129.89, 410.61, 78093.1)" gradientUnits="userSpaceOnUse"><stop offset="0.16" stop-color="#6bbf47"/><stop offset="0.38" stop-color="#79b461"/><stop offset="0.47" stop-color="#75ac64"/><stop offset="0.7" stop-color="#659e5a"/><stop offset="0.9" stop-color="#3e863d"/></linearGradient></defs><title>node</title><path class="cls-2" d="M126.58,120.73a6.82,6.82,0,0,0-3.41-5.93L66.7,82.31a6.59,6.59,0,0,0-3.1-.89H63a6.71,6.71,0,0,0-3.12.89L3.42,114.81A6.87,6.87,0,0,0,0,120.74l0.12,87.52a3.36,3.36,0,0,0,1.69,2.95,3.23,3.23,0,0,0,3.39,0L38.78,192a6.89,6.89,0,0,0,3.41-5.92V145.17a6.8,6.8,0,0,1,3.41-5.91L59.89,131a6.78,6.78,0,0,1,3.41-.92,6.66,6.66,0,0,1,3.39.92L81,139.26a6.8,6.8,0,0,1,3.41,5.91v40.88A6.91,6.91,0,0,0,87.82,192l33.55,19.21a3.33,3.33,0,0,0,3.41,0,3.42,3.42,0,0,0,1.69-2.95ZM393.07,166.3a1.69,1.69,0,0,1-.85,1.47L372.82,179a1.71,1.71,0,0,1-1.7,0l-19.4-11.18a1.69,1.69,0,0,1-.85-1.47V143.91a1.72,1.72,0,0,1,.84-1.48l19.39-11.2a1.72,1.72,0,0,1,1.72,0l19.4,11.2a1.7,1.7,0,0,1,.85,1.48V166.3ZM398.31,0.43a3.41,3.41,0,0,0-5.07,3V90.08a2.39,2.39,0,0,1-3.58,2.07L375.51,84a6.81,6.81,0,0,0-6.82,0L312.2,116.6a6.81,6.81,0,0,0-3.41,5.89v65.23a6.83,6.83,0,0,0,3.41,5.91l56.49,32.63a6.85,6.85,0,0,0,6.82,0L432,193.62a6.84,6.84,0,0,0,3.41-5.91V25.15a6.84,6.84,0,0,0-3.51-6ZM586.44,143.32a6.82,6.82,0,0,0,3.39-5.9V121.61a6.82,6.82,0,0,0-3.4-5.9L530.3,83.13a6.82,6.82,0,0,0-6.84,0L467,115.73a6.81,6.81,0,0,0-3.41,5.91v65.2a6.84,6.84,0,0,0,3.44,5.93l56.12,32a6.8,6.8,0,0,0,6.69,0l33.95-18.87a3.41,3.41,0,0,0,0-5.93L507,167.38a3.38,3.38,0,0,1-1.72-2.95V144a3.38,3.38,0,0,1,1.71-3l17.68-10.2a3.37,3.37,0,0,1,3.4,0L545.72,141a3.4,3.4,0,0,1,1.71,2.95v16.08a3.4,3.4,0,0,0,5.12,2.95Z"/><path class="cls-3" d="M526,140.27a1.29,1.29,0,0,1,1.31,0l10.84,6.25a1.31,1.31,0,0,1,.65,1.13v12.52a1.31,1.31,0,0,1-.65,1.13l-10.84,6.25a1.29,1.29,0,0,1-1.31,0l-10.83-6.25a1.3,1.3,0,0,1-.67-1.13V147.65a1.29,1.29,0,0,1,.65-1.13Z"/><g class="cls-4"><path class="cls-5" d="M337.41,110.37L179.12,32.78,98,198.35l158.28,77.59Z"/></g><g class="cls-6"><path class="cls-7" d="M87.69,133.32L199.45,284.59,347.26,175.38,235.49,24.11Z"/></g><g class="cls-8"><path class="cls-9" d="M158.29,82.56V225.8H280.53V82.56H158.29Z"/></g></svg>